<svg width="90" height="90" viewBox="0 0 90 90" fill="none" xmlns="http://www.w3.org/2000/svg">
<circle cx="45" cy="45" r="45" fill="#25AB75"/>
<path d="M46.812 40.9844H41.2125C41.1103 40.2599 40.9015 39.6165 40.5861 39.054C40.2708 38.483 39.8659 37.9972 39.3716 37.5966C38.8773 37.196 38.3063 36.8892 37.6586 36.6761C37.0194 36.4631 36.3248 36.3565 35.5748 36.3565C34.2196 36.3565 33.0392 36.6932 32.0336 37.3665C31.0279 38.0312 30.248 39.0028 29.6941 40.2812C29.1401 41.5511 28.8631 43.0937 28.8631 44.9091C28.8631 46.7756 29.1401 48.3437 29.6941 49.6136C30.2566 50.8835 31.0407 51.8423 32.0463 52.4901C33.052 53.1378 34.2154 53.4616 35.5364 53.4616C36.2779 53.4616 36.964 53.3636 37.5946 53.1676C38.2338 52.9716 38.8006 52.6861 39.2949 52.3111C39.7892 51.9276 40.1983 51.4631 40.5222 50.9176C40.8546 50.3722 41.0847 49.75 41.2125 49.0511L46.812 49.0767C46.6671 50.2784 46.3049 51.4375 45.7253 52.554C45.1543 53.6619 44.383 54.6548 43.4114 55.5327C42.4483 56.402 41.2978 57.0923 39.9597 57.6037C38.6301 58.1065 37.1259 58.358 35.4469 58.358C33.1117 58.358 31.0236 57.8295 29.1827 56.7727C27.3503 55.7159 25.9015 54.1861 24.8361 52.1832C23.7793 50.1804 23.2509 47.7557 23.2509 44.9091C23.2509 42.054 23.7878 39.625 24.8617 37.6222C25.9355 35.6193 27.3929 34.0937 29.2338 33.0455C31.0748 31.9886 33.1458 31.4602 35.4469 31.4602C36.964 31.4602 38.3702 31.6733 39.6657 32.0994C40.9696 32.5256 42.1245 33.1477 43.1302 33.9659C44.1358 34.7756 44.954 35.7685 45.5847 36.9446C46.2239 38.1207 46.633 39.4673 46.812 40.9844ZM50.7814 58V31.8182H68.1167V36.3821H56.3169V42.6207H66.9661V47.1847H56.3169V58H50.7814Z" fill="black"/>
</svg>
